<svg width="16" height="16" viewBox="0 0 16 16" fill="none" xmlns="http://www.w3.org/2000/svg">
<g clip-path="url(#clip0_280_2072)">
<path fill-rule="evenodd" clip-rule="evenodd" d="M6.27518 2.16675H11.7177C13.701 2.16675 14.8327 3.28675 14.8327 5.27591V10.7242C14.8327 12.7017 13.7069 13.8334 11.7235 13.8334H6.27518C4.28602 13.8334 3.16602 12.7017 3.16602 10.7242V5.27591C3.16602 3.28675 4.28602 2.16675 6.27518 2.16675ZM9.47768 8.48425H11.1343C11.4027 8.47842 11.6185 8.26258 11.6185 7.99425C11.6185 7.72591 11.4027 7.51008 11.1343 7.51008H9.47768V5.86508C9.47768 5.59675 9.26185 5.38091 8.99352 5.38091C8.72518 5.38091 8.50935 5.59675 8.50935 5.86508V7.51008H6.85852C6.73018 7.51008 6.60768 7.56258 6.51435 7.65008C6.42685 7.74341 6.37435 7.86533 6.37435 7.99425C6.37435 8.26258 6.59018 8.47842 6.85852 8.48425H8.50935V10.1351C8.50935 10.4034 8.72518 10.6192 8.99352 10.6192C9.26185 10.6192 9.47768 10.4034 9.47768 10.1351V8.48425Z" fill="#42BBFF"/>
</g>
<defs>
<clipPath id="clip0_280_2072">
<rect width="16" height="16" fill="white"/>
</clipPath>
</defs>
</svg>
