<svg width="30" height="30" viewBox="0 0 30 30" fill="none" xmlns="http://www.w3.org/2000/svg">
<path d="M25.3033 12.1965C23.8968 10.7899 21.9891 9.99976 20 9.99976C18.0109 9.99976 16.1032 10.7899 14.6967 12.1965C13.2902 13.603 12.5 15.5106 12.5 17.4998V26.2498H17.5V17.4998C17.5 16.8367 17.7634 16.2008 18.2322 15.732C18.7011 15.2631 19.337 14.9998 20 14.9998C20.663 14.9998 21.2989 15.2631 21.7678 15.732C22.2366 16.2008 22.5 16.8367 22.5 17.4998V26.2498H27.5V17.4998C27.5 15.5106 26.7098 13.603 25.3033 12.1965Z" stroke="#55597D" stroke-width="2.8125" stroke-linecap="round" stroke-linejoin="round"/>
<path d="M7.5 11.2498H2.5V26.2498H7.5V11.2498Z" stroke="#55597D" stroke-width="2.8125" stroke-linecap="round" stroke-linejoin="round"/>
<path d="M5 7.49976C6.38071 7.49976 7.5 6.38047 7.5 4.99976C7.5 3.61904 6.38071 2.49976 5 2.49976C3.61929 2.49976 2.5 3.61904 2.5 4.99976C2.5 6.38047 3.61929 7.49976 5 7.49976Z" stroke="#55597D" stroke-width="2.8125" stroke-linecap="round" stroke-linejoin="round"/>
</svg>
