<svg width="30" height="30" viewBox="0 0 30 30" fill="none" xmlns="http://www.w3.org/2000/svg">
<g clip-path="url(#clip0_579_2988)">
<path d="M24.825 5.66237C26.2276 5.24001 27.553 4.59422 28.75 3.74987C28.326 5.49077 27.4258 7.07924 26.15 8.33738C26.2154 8.67937 26.2488 9.02669 26.25 9.37487C26.25 23.7499 12.5 29.9999 1.25 23.7499C4.35895 23.8735 7.42566 22.9973 10 21.2499C2.07768 17.7288 2.21384 11.1084 2.98754 7.49989C3.31253 5.98418 3.75 4.99987 3.75 4.99987C4.36647 5.87769 5.08423 6.67443 5.88581 7.375C6.72636 8.10962 7.65906 8.73848 8.66376 9.24418C10.6266 10.2321 12.8033 10.7193 15 10.6624V9.41237C14.9846 8.2653 15.3219 7.14116 15.9662 6.19202C16.6106 5.24288 17.5308 4.51451 18.6026 4.10544C19.6744 3.69637 20.8459 3.62632 21.9588 3.90478C23.0717 4.18324 24.0722 4.79676 24.825 5.66237Z" stroke="#55597D" stroke-width="2.8125" stroke-linecap="round" stroke-linejoin="round"/>
</g>
<defs>
<clipPath id="clip0_579_2988">
<rect width="30" height="30" fill="white"/>
</clipPath>
</defs>
</svg>
