<svg width="30" height="30" viewBox="0 0 30 30" fill="none" xmlns="http://www.w3.org/2000/svg">
<path d="M21.875 8.12476H21.8875M8.75 2.49976H21.25C24.7018 2.49976 27.5 5.29798 27.5 8.74976V21.2498C27.5 24.7015 24.7018 27.4998 21.25 27.4998H8.75C5.29822 27.4998 2.5 24.7015 2.5 21.2498V8.74976C2.5 5.29798 5.29822 2.49976 8.75 2.49976ZM20 14.2123C20.1543 15.2526 19.9766 16.315 19.4922 17.2485C19.0078 18.182 18.2414 18.939 17.302 19.4118C16.3626 19.8847 15.2981 20.0492 14.2597 19.8822C13.2214 19.7151 12.2622 19.2249 11.5186 18.4812C10.7749 17.7376 10.2847 16.7783 10.1176 15.74C9.95052 14.7017 10.1151 13.6371 10.5879 12.6977C11.0607 11.7583 11.8177 10.9919 12.7512 10.5076C13.6847 10.0232 14.7472 9.84549 15.7875 9.99975C16.8487 10.1571 17.8311 10.6516 18.5896 11.4101C19.3482 12.1687 19.8427 13.1511 20 14.2123Z" stroke="#55597D" stroke-width="2.8125" stroke-linecap="round" stroke-linejoin="round"/>
</svg>
