<svg width="15" height="14" viewBox="0 0 15 14" fill="none" xmlns="http://www.w3.org/2000/svg">
<g clip-path="url(#clip0_2773_2423)">
<path d="M6.91699 2.33333H2.83366C2.52424 2.33333 2.22749 2.45625 2.0087 2.67504C1.78991 2.89383 1.66699 3.19058 1.66699 3.5V11.6667C1.66699 11.9761 1.78991 12.2728 2.0087 12.4916C2.22749 12.7104 2.52424 12.8333 2.83366 12.8333H11.0003C11.3097 12.8333 11.6065 12.7104 11.8253 12.4916C12.0441 12.2728 12.167 11.9761 12.167 11.6667V7.58333M11.292 1.45834C11.5241 1.22627 11.8388 1.0959 12.167 1.0959C12.4952 1.0959 12.8099 1.22627 13.042 1.45834C13.2741 1.6904 13.4044 2.00515 13.4044 2.33334C13.4044 2.66153 13.2741 2.97627 13.042 3.20834L7.50033 8.75L5.16699 9.33334L5.75033 7.00001L11.292 1.45834Z" stroke="#42BBFF" stroke-width="1.2" stroke-linecap="round" stroke-linejoin="round"/>
</g>
<defs>
<clipPath id="clip0_2773_2423">
<rect width="14" height="14" fill="white" transform="translate(0.5)"/>
</clipPath>
</defs>
</svg>
