<svg width="32" height="32" viewBox="0 0 32 32" fill="none" xmlns="http://www.w3.org/2000/svg">
<path d="M12.2168 26.6718C5.39482 28.6693 5.39482 23.3428 2.66602 22.6769M21.7676 29.3334V25.5133C21.8188 24.8783 21.7309 24.24 21.5098 23.6408C21.2887 23.0415 20.9394 22.4951 20.4851 22.0378C22.6522 21.802 24.8752 21.28 26.543 19.8807C29.9333 17.0361 30.3204 10.8957 27.2252 7.72269C27.5194 6.9533 27.6646 6.14557 27.6618 5.33904C27.6595 4.67087 27.5555 4.00351 27.3505 3.35944C27.2798 3.13736 27.1971 2.91805 27.1025 2.70243C27.1025 2.70243 26.8624 2.63295 26.3533 2.68791C25.8655 2.74057 25.1305 2.90753 24.1228 3.35944C23.4587 3.6573 22.676 4.07894 21.7676 4.67325C20.204 4.25965 18.5981 4.05286 16.9922 4.05286C15.3863 4.05286 13.7804 4.25965 12.2168 4.67325C11.3639 4.11525 10.6219 3.70947 9.98472 3.41544C9.21493 3.06022 8.59813 2.86811 8.12362 2.7678C7.27555 2.5885 6.88202 2.70243 6.88202 2.70243C6.51271 3.54338 6.32581 4.44047 6.32265 5.33904C6.31982 6.14557 6.46502 6.9533 6.75922 7.72269C3.83405 10.7213 4.0305 16.3583 6.88202 19.3555C8.59046 21.1513 11.0797 21.7844 13.4994 22.0777C13.0505 22.5304 12.7043 23.0703 12.4833 23.6622C12.2623 24.2542 12.1715 24.8849 12.2168 25.5133V29.3334" stroke="#55597D" stroke-width="2.25" stroke-linecap="round" stroke-linejoin="round"/>
</svg>
