<svg width="14" height="14" viewBox="0 0 14 14" fill="none" xmlns="http://www.w3.org/2000/svg">
<g clip-path="url(#clip0_273_4582)">
<path d="M8.16629 6.41667C7.91578 6.08177 7.59617 5.80465 7.22914 5.60413C6.86211 5.4036 6.45625 5.28436 6.03908 5.25448C5.62192 5.2246 5.2032 5.28479 4.81134 5.43097C4.41948 5.57714 4.06364 5.80588 3.76796 6.10167L2.01796 7.85167C1.48667 8.40176 1.19268 9.13852 1.19933 9.90326C1.20597 10.668 1.51272 11.3995 2.05349 11.9403C2.59426 12.4811 3.3258 12.7878 4.09054 12.7945C4.85528 12.8011 5.59204 12.5071 6.14213 11.9758L7.13963 10.9783M5.83295 7.58333C6.08347 7.91824 6.40308 8.19535 6.77011 8.39588C7.13714 8.5964 7.543 8.71565 7.96016 8.74553C8.37733 8.7754 8.79604 8.71521 9.1879 8.56904C9.57976 8.42286 9.9356 8.19412 10.2313 7.89833L11.9813 6.14833C12.5126 5.59824 12.8066 4.86148 12.7999 4.09674C12.7933 3.332 12.4865 2.60047 11.9458 2.05969C11.405 1.51892 10.6734 1.21218 9.9087 1.20553C9.14396 1.19889 8.40721 1.49287 7.85712 2.02416L6.85379 3.02166" stroke="#55597D" stroke-width="1.2" stroke-linecap="round" stroke-linejoin="round"/>
</g>
<defs>
<clipPath id="clip0_273_4582">
<rect width="14" height="14" fill="white"/>
</clipPath>
</defs>
</svg>
