<svg width="111" height="132" viewBox="0 0 111 132" fill="none" xmlns="http://www.w3.org/2000/svg">
<path d="M83.2347 45.5988H110.241L79.0864 14.3988V41.4445C79.0864 43.7336 80.9489 45.5988 83.2347 45.5988Z" fill="#42BBFF"/>
<path d="M82.7123 47.5554C78.5832 47.5554 75.2637 44.181 75.2637 39.9834V11.9999H18.5895C16.2416 11.9999 14.3794 13.8929 14.3794 16.362V46.1563H40.6115C41.0973 46.1563 41.4211 45.7447 41.4211 45.3332V40.3126C41.4211 39.5719 42.2307 39.1604 42.7165 39.6542L55.3468 49.3661C55.7516 49.6953 55.7516 50.3538 55.3468 50.683L42.7165 60.4772C42.2307 60.8887 41.4211 60.4772 41.4211 59.8188V54.7159C41.4211 54.3044 41.0973 53.8929 40.6115 53.8929H14.3794V66.7324H55.7516C56.1564 66.7324 56.5612 66.4032 56.5612 65.9093V60.8887C56.5612 60.2303 57.2899 59.8188 57.8566 60.2303L70.4059 69.9422C70.8917 70.3538 70.8917 71.0122 70.4059 71.3414L57.8566 81.0534C57.2899 81.4649 56.5612 81.0534 56.5612 80.3949V75.3744C56.5612 74.8805 56.1564 74.5513 55.7516 74.5513H14.3794V87.3908H70.8107C71.2965 87.3908 71.6204 86.9793 71.6204 86.5678V81.4649C71.6204 80.8064 72.43 80.3949 72.9967 80.8064L85.546 90.6007C85.9509 90.9299 85.9509 91.5883 85.546 91.9176L72.9967 101.629C72.43 102.123 71.6204 101.712 71.6204 100.971V95.9505C71.6204 95.539 71.2965 95.1275 70.8107 95.1275H14.3794V107.967H85.9509C86.3557 107.967 86.7605 107.638 86.7605 107.144V102.123C86.7605 101.383 87.5701 101.053 88.0559 101.465L100.605 111.177C101.091 111.506 101.091 112.164 100.605 112.494L88.0559 122.288C87.5701 122.699 86.7605 122.288 86.7605 121.63V116.609C86.7605 116.115 86.3557 115.704 85.9509 115.704H14.3794V127.638C14.3794 130.107 16.2416 132 18.5895 132H106.03C108.378 132 110.24 130.107 110.24 127.638V47.5554H82.7123Z" fill="url(#paint0_linear_595_9139)"/>
<path d="M9.07605 5.71037H76.6883V0H7.9103C3.58045 0 0 3.47586 0 7.86207V120H5.7454V9.02071C5.7454 7.20002 7.24419 5.71037 9.07605 5.71037Z" fill="#2E3757"/>
<defs>
<linearGradient id="paint0_linear_595_9139" x1="14.3794" y1="63.111" x2="110.24" y2="63.111" gradientUnits="userSpaceOnUse">
<stop stop-color="#43B7FE"/>
<stop offset="1" stop-color="#4F48E6"/>
</linearGradient>
</defs>
</svg>
