<svg width="18" height="18" viewBox="0 0 18 18" fill="none" xmlns="http://www.w3.org/2000/svg">
<path d="M12 15.75V14.25C12 13.4544 11.6839 12.6913 11.1213 12.1287C10.5587 11.5661 9.79565 11.25 9 11.25H3.75C2.95435 11.25 2.19129 11.5661 1.62868 12.1287C1.06607 12.6913 0.75 13.4544 0.75 14.25V15.75M12.75 8.25L14.25 9.75L17.25 6.75M9.375 5.25C9.375 6.90685 8.03185 8.25 6.375 8.25C4.71815 8.25 3.375 6.90685 3.375 5.25C3.375 3.59315 4.71815 2.25 6.375 2.25C8.03185 2.25 9.375 3.59315 9.375 5.25Z" stroke="#68D1BF" stroke-width="1.5" stroke-linecap="round" stroke-linejoin="round"/>
</svg>
