<svg width="22" height="18" viewBox="0 0 22 18" fill="none" xmlns="http://www.w3.org/2000/svg">
<path fill-rule="evenodd" clip-rule="evenodd" d="M0.5 1.5C0.5 1.10218 0.65804 0.72064 0.93934 0.43934C1.22064 0.15804 1.60218 0 2 0H20C20.3978 0 20.7794 0.15804 21.0607 0.43934C21.342 0.72064 21.5 1.10218 21.5 1.5C21.5 1.89782 21.342 2.27936 21.0607 2.56066C20.7794 2.84196 20.3978 3 20 3H2C1.60218 3 1.22064 2.84196 0.93934 2.56066C0.65804 2.27936 0.5 1.89782 0.5 1.5ZM0.5 9C0.5 8.6022 0.65804 8.2206 0.93934 7.9393C1.22064 7.658 1.60218 7.5 2 7.5H20C20.3978 7.5 20.7794 7.658 21.0607 7.9393C21.342 8.2206 21.5 8.6022 21.5 9C21.5 9.3978 21.342 9.7794 21.0607 10.0607C20.7794 10.342 20.3978 10.5 20 10.5H2C1.60218 10.5 1.22064 10.342 0.93934 10.0607C0.65804 9.7794 0.5 9.3978 0.5 9ZM9.5 16.5C9.5 16.1022 9.658 15.7206 9.9393 15.4393C10.2206 15.158 10.6022 15 11 15H20C20.3978 15 20.7794 15.158 21.0607 15.4393C21.342 15.7206 21.5 16.1022 21.5 16.5C21.5 16.8978 21.342 17.2794 21.0607 17.5607C20.7794 17.842 20.3978 18 20 18H11C10.6022 18 10.2206 17.842 9.9393 17.5607C9.658 17.2794 9.5 16.8978 9.5 16.5Z" fill="white"/>
</svg>
